<svg width="100" height="54" viewBox="0 0 100 54" fill="none" xmlns="http://www.w3.org/2000/svg">
<path d="M0.88 13V0.539999H5.22C6.19333 0.539999 6.99333 0.706666 7.62 1.04C8.26 1.37333 8.73333 1.82 9.04 2.38C9.36 2.94 9.52 3.56 9.52 4.24C9.52 4.73333 9.43333 5.2 9.26 5.64C9.08667 6.08 8.82667 6.46667 8.48 6.8C8.13333 7.13333 7.69333 7.39333 7.16 7.58C6.64 7.76667 6.02667 7.86 5.32 7.86H3.46V13H0.88ZM3.46 5.78H5.16C5.52 5.78 5.82667 5.71333 6.08 5.58C6.34667 5.44667 6.55333 5.26667 6.7 5.04C6.84667 4.8 6.92 4.52667 6.92 4.22C6.92 3.91333 6.84667 3.64667 6.7 3.42C6.55333 3.19333 6.35333 3.02 6.1 2.9C5.84667 2.76667 5.54 2.7 5.18 2.7H3.46V5.78ZM11.58 3.64H14.2L14.18 6.24L13.9 6.1C13.94 5.7 14.0467 5.34 14.22 5.02C14.3933 4.68667 14.6133 4.4 14.88 4.16C15.16 3.92 15.46 3.74 15.78 3.62C16.1133 3.48667 16.4533 3.42 16.8 3.42C17.3333 3.42 17.8133 3.50667 18.24 3.68C18.6667 3.85333 19.06 4.12667 19.42 4.5L18.36 6.66L18.3 6.82L18.1 6.74C18.06 6.63333 18.02 6.52 17.98 6.4C17.9533 6.28 17.8667 6.14 17.72 5.98C17.5333 5.84667 17.3333 5.73333 17.12 5.64C16.9067 5.54667 16.6733 5.5 16.42 5.5C16.1 5.5 15.8 5.55333 15.52 5.66C15.2533 5.75333 15.02 5.90667 14.82 6.12C14.62 6.33333 14.46 6.60667 14.34 6.94C14.22 7.26 14.16 7.65333 14.16 8.12V13H11.58V3.64ZM24.98 13.22C24.14 13.22 23.38 13.02 22.7 12.62C22.02 12.2067 21.48 11.6333 21.08 10.9C20.68 10.1533 20.48 9.29333 20.48 8.32C20.48 7.4 20.68 6.57333 21.08 5.84C21.48 5.09333 22.02 4.50667 22.7 4.08C23.38 3.64 24.14 3.42 24.98 3.42C25.82 3.42 26.58 3.64 27.26 4.08C27.9533 4.50667 28.5 5.09333 28.9 5.84C29.3133 6.57333 29.52 7.4 29.52 8.32C29.52 9.28 29.3133 10.1333 28.9 10.88C28.5 11.6133 27.9533 12.1867 27.26 12.6C26.58 13.0133 25.82 13.22 24.98 13.22ZM24.98 11.2C25.38 11.2 25.7267 11.08 26.02 10.84C26.3267 10.6 26.5667 10.2667 26.74 9.84C26.9133 9.4 27 8.89333 27 8.32C27 7.70667 26.9133 7.18667 26.74 6.76C26.5667 6.33333 26.3267 6.00667 26.02 5.78C25.7267 5.55333 25.38 5.44 24.98 5.44C24.6067 5.44 24.2667 5.55333 23.96 5.78C23.6667 6.00667 23.4333 6.33333 23.26 6.76C23.0867 7.18667 23 7.70667 23 8.32C23 8.89333 23.0867 9.4 23.26 9.84C23.4333 10.2667 23.6667 10.6 23.96 10.84C24.2667 11.08 24.6067 11.2 24.98 11.2ZM0.76 33V20.54H4.08C4.81333 20.54 5.43333 20.6067 5.94 20.74C6.44667 20.8733 6.88 21.0733 7.24 21.34C7.6 21.5933 7.91333 21.9067 8.18 22.28C8.46 22.6533 8.7 23.0733 8.9 23.54C9.11333 24.0067 9.27333 24.52 9.38 25.08C9.48667 25.6267 9.54 26.22 9.54 26.86C9.52667 27.8067 9.40667 28.66 9.18 29.42C8.96667 30.1667 8.62667 30.8067 8.16 31.34C7.70667 31.8733 7.12 32.2867 6.4 32.58C5.68 32.86 4.82667 33 3.84 33H0.76ZM3.24 31H3.8C4.61333 31 5.26 30.8267 5.74 30.48C6.22 30.12 6.56 29.6333 6.76 29.02C6.96 28.3933 7.06 27.68 7.06 26.88C7.06 26 6.97333 25.24 6.8 24.6C6.62667 23.96 6.31333 23.46 5.86 23.1C5.42 22.7267 4.8 22.54 4 22.54H3.24V31ZM15.4 33.24C14.7333 33.24 14.1133 33.1333 13.54 32.92C12.9667 32.6933 12.4667 32.3733 12.04 31.96C11.6267 31.5467 11.3 31.04 11.06 30.44C10.82 29.84 10.7 29.16 10.7 28.4C10.7 27.6267 10.8133 26.9333 11.04 26.32C11.28 25.6933 11.6 25.1667 12 24.74C12.4 24.3133 12.8667 23.9867 13.4 23.76C13.9467 23.5333 14.5333 23.42 15.16 23.42C15.7067 23.42 16.22 23.52 16.7 23.72C17.1933 23.9067 17.6267 24.1933 18 24.58C18.3867 24.9667 18.6867 25.4467 18.9 26.02C19.1267 26.5933 19.24 27.2533 19.24 28C19.24 28.1467 19.24 28.3267 19.24 28.54C19.24 28.7533 19.2333 28.9333 19.22 29.08H13.16C13.1867 29.4533 13.2667 29.78 13.4 30.06C13.5467 30.3267 13.7267 30.5533 13.94 30.74C14.1667 30.9133 14.4133 31.0467 14.68 31.14C14.96 31.22 15.24 31.26 15.52 31.26C15.8 31.26 16.06 31.24 16.3 31.2C16.5533 31.1467 16.7933 31.06 17.02 30.94C17.26 30.82 17.4867 30.6467 17.7 30.42L18.98 31.68C18.6733 32.04 18.3333 32.34 17.96 32.58C17.5867 32.8067 17.18 32.9733 16.74 33.08C16.3133 33.1867 15.8667 33.24 15.4 33.24ZM13.18 27.18H16.8C16.8 26.8867 16.76 26.6267 16.68 26.4C16.6133 26.1733 16.5 25.9867 16.34 25.84C16.1933 25.6933 16.0133 25.5867 15.8 25.52C15.5867 25.44 15.34 25.4 15.06 25.4C14.82 25.4 14.5933 25.4333 14.38 25.5C14.1667 25.5667 13.9733 25.6733 13.8 25.82C13.64 25.9667 13.5067 26.1533 13.4 26.38C13.2933 26.6067 13.22 26.8733 13.18 27.18ZM23.96 33L20.52 23.64H23.18L25.36 30.04H25.04L26.18 27.22C26.3933 26.6067 26.5733 26 26.72 25.4C26.8667 24.7867 26.9533 24.2 26.98 23.64H29.34C29.2867 24.24 29.1533 24.8667 28.94 25.52C28.7267 26.1733 28.4867 26.8267 28.22 27.48L25.98 33H23.96ZM35.4 33.24C34.7333 33.24 34.1133 33.1333 33.54 32.92C32.9667 32.6933 32.4667 32.3733 32.04 31.96C31.6267 31.5467 31.3 31.04 31.06 30.44C30.82 29.84 30.7 29.16 30.7 28.4C30.7 27.6267 30.8133 26.9333 31.04 26.32C31.28 25.6933 31.6 25.1667 32 24.74C32.4 24.3133 32.8667 23.9867 33.4 23.76C33.9467 23.5333 34.5333 23.42 35.16 23.42C35.7067 23.42 36.22 23.52 36.7 23.72C37.1933 23.9067 37.6267 24.1933 38 24.58C38.3867 24.9667 38.6867 25.4467 38.9 26.02C39.1267 26.5933 39.24 27.2533 39.24 28C39.24 28.1467 39.24 28.3267 39.24 28.54C39.24 28.7533 39.2333 28.9333 39.22 29.08H33.16C33.1867 29.4533 33.2667 29.78 33.4 30.06C33.5467 30.3267 33.7267 30.5533 33.94 30.74C34.1667 30.9133 34.4133 31.0467 34.68 31.14C34.96 31.22 35.24 31.26 35.52 31.26C35.8 31.26 36.06 31.24 36.3 31.2C36.5533 31.1467 36.7933 31.06 37.02 30.94C37.26 30.82 37.4867 30.6467 37.7 30.42L38.98 31.68C38.6733 32.04 38.3333 32.34 37.96 32.58C37.5867 32.8067 37.18 32.9733 36.74 33.08C36.3133 33.1867 35.8667 33.24 35.4 33.24ZM33.18 27.18H36.8C36.8 26.8867 36.76 26.6267 36.68 26.4C36.6133 26.1733 36.5 25.9867 36.34 25.84C36.1933 25.6933 36.0133 25.5867 35.8 25.52C35.5867 25.44 35.34 25.4 35.06 25.4C34.82 25.4 34.5933 25.4333 34.38 25.5C34.1667 25.5667 33.9733 25.6733 33.8 25.82C33.64 25.9667 33.5067 26.1533 33.4 26.38C33.2933 26.6067 33.22 26.8733 33.18 27.18ZM41.14 33V31H43.74V21.54H41.26V19.54H46.3V31H48.86V33H41.14ZM54.98 33.22C54.14 33.22 53.38 33.02 52.7 32.62C52.02 32.2067 51.48 31.6333 51.08 30.9C50.68 30.1533 50.48 29.2933 50.48 28.32C50.48 27.4 50.68 26.5733 51.08 25.84C51.48 25.0933 52.02 24.5067 52.7 24.08C53.38 23.64 54.14 23.42 54.98 23.42C55.82 23.42 56.58 23.64 57.26 24.08C57.9533 24.5067 58.5 25.0933 58.9 25.84C59.3133 26.5733 59.52 27.4 59.52 28.32C59.52 29.28 59.3133 30.1333 58.9 30.88C58.5 31.6133 57.9533 32.1867 57.26 32.6C56.58 33.0133 55.82 33.22 54.98 33.22ZM54.98 31.2C55.38 31.2 55.7267 31.08 56.02 30.84C56.3267 30.6 56.5667 30.2667 56.74 29.84C56.9133 29.4 57 28.8933 57 28.32C57 27.7067 56.9133 27.1867 56.74 26.76C56.5667 26.3333 56.3267 26.0067 56.02 25.78C55.7267 25.5533 55.38 25.44 54.98 25.44C54.6067 25.44 54.2667 25.5533 53.96 25.78C53.6667 26.0067 53.4333 26.3333 53.26 26.76C53.0867 27.1867 53 27.7067 53 28.32C53 28.8933 53.0867 29.4 53.26 29.84C53.4333 30.2667 53.6667 30.6 53.96 30.84C54.2667 31.08 54.6067 31.2 54.98 31.2ZM60.88 36.34L60.86 23.62H63.36V24.76C63.5867 24.44 63.8267 24.1867 64.08 24C64.3467 23.8 64.6333 23.6533 64.94 23.56C65.2467 23.4667 65.5733 23.42 65.92 23.42C66.4267 23.42 66.9 23.5267 67.34 23.74C67.78 23.9533 68.1667 24.2733 68.5 24.7C68.8333 25.1133 69.0933 25.6267 69.28 26.24C69.4667 26.8533 69.56 27.5667 69.56 28.38C69.56 29.1933 69.46 29.9067 69.26 30.52C69.06 31.1333 68.7867 31.6467 68.44 32.06C68.1067 32.46 67.7133 32.76 67.26 32.96C66.82 33.1467 66.36 33.24 65.88 33.24C65.56 33.24 65.2467 33.2067 64.94 33.14C64.6333 33.0733 64.3467 32.9733 64.08 32.84C63.8267 32.7067 63.6133 32.54 63.44 32.34V36.34H60.88ZM65.12 31.32C65.4133 31.32 65.6733 31.2667 65.9 31.16C66.14 31.0533 66.3467 30.8867 66.52 30.66C66.6933 30.42 66.8267 30.1 66.92 29.7C67.0133 29.2867 67.06 28.7933 67.06 28.22C67.06 27.6333 66.98 27.1267 66.82 26.7C66.6733 26.2733 66.46 25.9467 66.18 25.72C65.9133 25.4933 65.5933 25.38 65.22 25.38C64.9267 25.38 64.6667 25.44 64.44 25.56C64.2133 25.6667 64.0267 25.8467 63.88 26.1C63.7333 26.34 63.62 26.66 63.54 27.06C63.4733 27.4467 63.44 27.9067 63.44 28.44C63.44 28.8267 63.46 29.18 63.5 29.5C63.5533 29.8067 63.62 30.0733 63.7 30.3C63.7933 30.5267 63.9067 30.72 64.04 30.88C64.1733 31.0267 64.3267 31.14 64.5 31.22C64.6867 31.2867 64.8933 31.32 65.12 31.32ZM75.4 33.24C74.7333 33.24 74.1133 33.1333 73.54 32.92C72.9667 32.6933 72.4667 32.3733 72.04 31.96C71.6267 31.5467 71.3 31.04 71.06 30.44C70.82 29.84 70.7 29.16 70.7 28.4C70.7 27.6267 70.8133 26.9333 71.04 26.32C71.28 25.6933 71.6 25.1667 72 24.74C72.4 24.3133 72.8667 23.9867 73.4 23.76C73.9467 23.5333 74.5333 23.42 75.16 23.42C75.7067 23.42 76.22 23.52 76.7 23.72C77.1933 23.9067 77.6267 24.1933 78 24.58C78.3867 24.9667 78.6867 25.4467 78.9 26.02C79.1267 26.5933 79.24 27.2533 79.24 28C79.24 28.1467 79.24 28.3267 79.24 28.54C79.24 28.7533 79.2333 28.9333 79.22 29.08H73.16C73.1867 29.4533 73.2667 29.78 73.4 30.06C73.5467 30.3267 73.7267 30.5533 73.94 30.74C74.1667 30.9133 74.4133 31.0467 74.68 31.14C74.96 31.22 75.24 31.26 75.52 31.26C75.8 31.26 76.06 31.24 76.3 31.2C76.5533 31.1467 76.7933 31.06 77.02 30.94C77.26 30.82 77.4867 30.6467 77.7 30.42L78.98 31.68C78.6733 32.04 78.3333 32.34 77.96 32.58C77.5867 32.8067 77.18 32.9733 76.74 33.08C76.3133 33.1867 75.8667 33.24 75.4 33.24ZM73.18 27.18H76.8C76.8 26.8867 76.76 26.6267 76.68 26.4C76.6133 26.1733 76.5 25.9867 76.34 25.84C76.1933 25.6933 76.0133 25.5867 75.8 25.52C75.5867 25.44 75.34 25.4 75.06 25.4C74.82 25.4 74.5933 25.4333 74.38 25.5C74.1667 25.5667 73.9733 25.6733 73.8 25.82C73.64 25.9667 73.5067 26.1533 73.4 26.38C73.2933 26.6067 73.22 26.8733 73.18 27.18ZM81.58 23.64H84.2L84.18 26.24L83.9 26.1C83.94 25.7 84.0467 25.34 84.22 25.02C84.3933 24.6867 84.6133 24.4 84.88 24.16C85.16 23.92 85.46 23.74 85.78 23.62C86.1133 23.4867 86.4533 23.42 86.8 23.42C87.3333 23.42 87.8133 23.5067 88.24 23.68C88.6667 23.8533 89.06 24.1267 89.42 24.5L88.36 26.66L88.3 26.82L88.1 26.74C88.06 26.6333 88.02 26.52 87.98 26.4C87.9533 26.28 87.8667 26.14 87.72 25.98C87.5333 25.8467 87.3333 25.7333 87.12 25.64C86.9067 25.5467 86.6733 25.5 86.42 25.5C86.1 25.5 85.8 25.5533 85.52 25.66C85.2533 25.7533 85.02 25.9067 84.82 26.12C84.62 26.3333 84.46 26.6067 84.34 26.94C84.22 27.26 84.16 27.6533 84.16 28.12V33H81.58V23.64ZM95.24 33.24C94.6533 33.24 94.0933 33.1867 93.56 33.08C93.0267 32.9733 92.5267 32.8133 92.06 32.6C91.6067 32.3867 91.1933 32.1 90.82 31.74L91.88 29.74L91.96 29.58L92.14 29.68C92.1667 29.7733 92.2 29.88 92.24 30C92.2933 30.1067 92.4 30.2333 92.56 30.38C92.9067 30.66 93.3 30.88 93.74 31.04C94.18 31.1867 94.6867 31.26 95.26 31.26C95.5933 31.26 95.8733 31.2267 96.1 31.16C96.34 31.08 96.5267 30.9733 96.66 30.84C96.7933 30.6933 96.86 30.54 96.86 30.38C96.86 30.2333 96.8133 30.1067 96.72 30C96.64 29.8933 96.5133 29.8 96.34 29.72C96.1667 29.6267 95.9467 29.54 95.68 29.46C95.4133 29.3667 95.0933 29.2667 94.72 29.16C94.04 28.9867 93.4533 28.7733 92.96 28.52C92.4667 28.2533 92.0867 27.9333 91.82 27.56C91.5533 27.1867 91.42 26.74 91.42 26.22C91.42 25.7 91.5733 25.2333 91.88 24.82C92.2 24.3933 92.64 24.0533 93.2 23.8C93.7733 23.5467 94.4333 23.42 95.18 23.42C95.5533 23.42 95.9133 23.4533 96.26 23.52C96.62 23.5733 96.9533 23.66 97.26 23.78C97.58 23.8867 97.88 24.0333 98.16 24.22C98.44 24.3933 98.7067 24.6 98.96 24.84L97.76 26.56L97.64 26.72L97.46 26.58C97.4467 26.4733 97.4133 26.3733 97.36 26.28C97.32 26.1867 97.2267 26.0667 97.08 25.92C96.8133 25.7333 96.52 25.6 96.2 25.52C95.88 25.44 95.5533 25.4 95.22 25.4C94.8067 25.4 94.44 25.4667 94.12 25.6C93.8133 25.7333 93.66 25.9333 93.66 26.2C93.66 26.36 93.7333 26.5067 93.88 26.64C94.04 26.76 94.28 26.8733 94.6 26.98C94.9333 27.0867 95.3533 27.2067 95.86 27.34C96.62 27.5133 97.2333 27.7333 97.7 28C98.18 28.2667 98.5333 28.5867 98.76 28.96C98.9867 29.3333 99.1 29.7667 99.1 30.26C99.1 30.7933 98.9467 31.2867 98.64 31.74C98.3467 32.1933 97.9133 32.56 97.34 32.84C96.7667 33.1067 96.0667 33.24 95.24 33.24ZM5.54 53.24C4.86 53.24 4.22 53.1133 3.62 52.86C3.02 52.6067 2.48667 52.22 2.02 51.7C1.55333 51.18 1.18667 50.52 0.92 49.72C0.666667 48.9067 0.54 47.9467 0.54 46.84C0.54 45.8667 0.64 45.0133 0.84 44.28C1.05333 43.5467 1.33333 42.9333 1.68 42.44C2.02667 41.9333 2.42 41.5267 2.86 41.22C3.3 40.9 3.76 40.6733 4.24 40.54C4.72 40.3933 5.19333 40.32 5.66 40.32C6.62 40.32 7.43333 40.5333 8.1 40.96C8.78 41.3733 9.3 41.9733 9.66 42.76L8.18 43.98L8.04 44.1L7.9 43.94C7.91333 43.8333 7.90667 43.7333 7.88 43.64C7.85333 43.5333 7.78 43.3933 7.66 43.22C7.39333 42.8867 7.10667 42.6667 6.8 42.56C6.49333 42.4533 6.18 42.4 5.86 42.4C5.51333 42.4 5.17333 42.4933 4.84 42.68C4.52 42.8533 4.22667 43.12 3.96 43.48C3.69333 43.84 3.48 44.2933 3.32 44.84C3.16 45.3733 3.08 46.0067 3.08 46.74C3.08 47.4467 3.14 48.0733 3.26 48.62C3.39333 49.1533 3.57333 49.6133 3.8 50C4.02667 50.3733 4.29333 50.66 4.6 50.86C4.92 51.0467 5.26667 51.14 5.64 51.14C5.96 51.14 6.24667 51.1 6.5 51.02C6.75333 50.94 6.98667 50.8067 7.2 50.62C7.41333 50.42 7.61333 50.1533 7.8 49.82L9.56 51.12C9.06667 51.9067 8.49333 52.46 7.84 52.78C7.18667 53.0867 6.42 53.24 5.54 53.24ZM11.14 53V51H13.74V41.54H11.26V39.54H16.3V51H18.86V53H11.14ZM24.18 53.24C23.7933 53.24 23.4333 53.1867 23.1 53.08C22.7667 52.9867 22.46 52.84 22.18 52.64C21.9133 52.44 21.68 52.1867 21.48 51.88C21.2933 51.56 21.1467 51.18 21.04 50.74C20.9333 50.3 20.88 49.8 20.88 49.24V43.64H23.44V49.24C23.44 49.6 23.4667 49.9067 23.52 50.16C23.5867 50.4 23.6733 50.6 23.78 50.76C23.9 50.92 24.0333 51.04 24.18 51.12C24.3267 51.1867 24.4867 51.22 24.66 51.22C24.9267 51.22 25.1667 51.1733 25.38 51.08C25.5933 50.9867 25.7733 50.8533 25.92 50.68C26.08 50.4933 26.1933 50.2667 26.26 50C26.34 49.72 26.38 49.3933 26.38 49.02V43.64H28.94V51.5C28.94 51.8067 28.9467 52.08 28.96 52.32C28.9867 52.5467 29.0467 52.7733 29.14 53H26.84C26.7733 52.8667 26.7267 52.74 26.7 52.62C26.6733 52.4867 26.6533 52.36 26.64 52.24C26.64 52.1067 26.64 51.98 26.64 51.86C26.5067 52.0867 26.3467 52.2867 26.16 52.46C25.9733 52.6333 25.7733 52.78 25.56 52.9C25.3467 53.0067 25.12 53.0867 24.88 53.14C24.6533 53.2067 24.42 53.24 24.18 53.24ZM35.66 53.24C35.3533 53.24 35.0467 53.1933 34.74 53.1C34.4467 53.02 34.1667 52.8933 33.9 52.72C33.6467 52.5333 33.4133 52.3067 33.2 52.04L32.86 53H30.88V39.54H33.42H33.6V39.74C33.5333 39.82 33.4867 39.9067 33.46 40C33.4467 40.0933 33.44 40.2533 33.44 40.48V44.58C33.5733 44.3933 33.7267 44.2333 33.9 44.1C34.0733 43.9533 34.26 43.8333 34.46 43.74C34.66 43.6333 34.8733 43.5533 35.1 43.5C35.3267 43.4467 35.5533 43.42 35.78 43.42C36.3533 43.4333 36.8667 43.54 37.32 43.74C37.7867 43.9267 38.18 44.22 38.5 44.62C38.8333 45.0067 39.0867 45.4933 39.26 46.08C39.4467 46.6667 39.54 47.3533 39.54 48.14C39.54 49.0067 39.44 49.76 39.24 50.4C39.04 51.04 38.76 51.5733 38.4 52C38.04 52.4133 37.6267 52.7267 37.16 52.94C36.6933 53.14 36.1933 53.24 35.66 53.24ZM35.12 51.32C35.3867 51.32 35.6333 51.2667 35.86 51.16C36.1 51.0533 36.3 50.8867 36.46 50.66C36.6333 50.4333 36.7667 50.1333 36.86 49.76C36.9667 49.3867 37.02 48.9333 37.02 48.4C37.02 47.92 36.98 47.4933 36.9 47.12C36.82 46.7333 36.7 46.4067 36.54 46.14C36.38 45.86 36.18 45.6467 35.94 45.5C35.7133 45.3533 35.4533 45.28 35.16 45.28C34.8 45.28 34.4933 45.4 34.24 45.64C33.9867 45.8667 33.7933 46.2 33.66 46.64C33.54 47.0667 33.4733 47.6 33.46 48.24C33.46 48.7467 33.4933 49.1933 33.56 49.58C33.6267 49.9667 33.7267 50.2867 33.86 50.54C34.0067 50.7933 34.18 50.9867 34.38 51.12C34.5933 51.2533 34.84 51.32 35.12 51.32Z" fill="white"/>
</svg>
